<svg width="43" height="44" viewBox="0 0 43 44" fill="none" xmlns="http://www.w3.org/2000/svg">
<path d="M0 27.2498L0.0478188 15.1897C0.175336 13.4783 0.30453 11.7634 0.405201 10.0485C0.786913 3.5747 2.98658 1.17659 9.35151 0.495898C11.5386 0.261936 13.7374 0.144107 15.9337 0L27.349 0.0398414C29.1569 0.169538 30.9631 0.302625 32.771 0.423844C39.2433 0.847689 41.5268 2.99488 42.2273 9.50005C42.469 11.7507 42.5797 14.0165 42.7223 16.2816L42.6628 27.8101C42.5336 29.5826 42.4027 31.3543 42.2987 33.1277C41.9178 39.5989 39.698 42.0098 33.3515 42.6786C31.2039 42.9058 29.0453 43.0261 26.8918 43.1703L15.0562 43.1135C13.3507 42.9829 11.646 42.8507 9.93876 42.7557C3.59144 42.3989 1.1099 40.0796 0.483221 33.7541C0.269295 31.5917 0.143456 29.4199 0 27.2498ZM16.7961 14.932C17.5042 15.1397 18.2525 15.3559 18.2886 16.2121C18.344 17.5463 18.3331 18.8857 18.2735 20.2191C18.2644 20.3434 18.232 20.4648 18.1779 20.5768C18.1351 20.6701 18.0732 20.7531 17.9961 20.8203C17.9191 20.8874 17.8287 20.9372 17.7311 20.9663C17.6335 20.9953 17.5309 21.003 17.4301 20.9887C17.3294 20.9745 17.2328 20.9387 17.1468 20.8837C16.9943 20.7938 16.8574 20.6793 16.7416 20.5446C15.5017 19.0035 14.5604 17.2759 13.8389 15.4305C13.6049 14.8371 13.1988 14.476 12.5512 14.4633C11.2928 14.4387 10.0394 14.4268 8.78356 14.4158C7.94463 14.409 7.75 14.8905 8.0797 15.55C9.24916 17.8862 10.3607 20.2615 11.6871 22.5061C13.5143 25.5985 15.7265 28.44 19.5268 29.0198C21.0638 29.252 23.4698 30.6584 23.8431 27.3329C23.9077 26.7649 23.8691 25.9851 24.5604 25.7833C25.2777 25.5731 25.7592 26.2165 26.0705 26.7158C27.9161 29.6649 30.7685 29.5767 33.6544 29.3156C34.7928 29.2122 35.1216 28.4196 34.4455 27.5219C33.4958 26.2606 32.4782 25.0212 31.3255 23.9523C30.2634 22.9673 30.276 22.1959 31.1116 21.088C32.3649 19.4231 33.7676 17.8447 34.5772 15.8738C34.9765 14.9024 34.63 14.4573 33.6166 14.4607C32.3188 14.4658 31.0159 14.5057 29.7232 14.4421C28.8272 14.398 28.354 14.7337 28.0453 15.5856C27.349 17.4912 26.3389 19.2307 24.9597 20.7201L24.9287 20.7506C24.5361 21.1354 23.8591 20.9659 23.7383 20.4268C23.7297 20.3895 23.725 20.3514 23.724 20.3132C23.6812 18.6237 23.7114 16.9326 23.6997 15.2414C23.6946 14.4404 23.2743 13.9335 22.4832 13.908C20.9933 13.8606 19.5 13.8521 18.0109 13.8996C17.4337 13.9131 16.9136 14.1844 16.7961 14.932Z" fill="white"/>
</svg>
