<svg width="44" height="44" viewBox="0 0 44 44" fill="none" xmlns="http://www.w3.org/2000/svg">
<path d="M43.7035 18.2627V25.2109C43.6279 25.3273 43.6632 25.4581 43.6632 25.5821C43.6671 27.5126 43.6198 29.4425 43.5211 31.3718C43.437 33.0707 43.316 34.7746 43.0251 36.4531C42.7922 37.7968 42.1954 38.9928 41.3169 40.0317C40.1668 41.3908 38.736 42.3056 37.0033 42.7048C36.2417 42.8806 35.4599 42.9299 34.6848 43.0132C32.9101 43.2034 31.1295 43.3003 29.3465 43.3359C28.0485 43.3614 26.7513 43.4141 25.4533 43.3895C25.3037 43.3895 25.1456 43.3461 25.0019 43.4294H18.965C18.849 43.3529 18.7195 43.3878 18.5976 43.3886C16.6287 43.3971 14.6599 43.3453 12.696 43.2442C11.0147 43.1593 9.32494 43.0403 7.66292 42.743C6.33427 42.4995 5.09791 41.8902 4.09005 40.9822C2.76683 39.8168 1.8673 38.3829 1.47891 36.6442C1.30237 35.8593 1.26202 35.0541 1.17963 34.2565C1.04848 32.9823 0.970301 31.7022 0.862695 30.4255C0.818139 29.8921 0.828227 29.3536 0.819821 28.8193C0.80637 27.7048 0.778627 26.587 0.755929 25.476C0.717258 23.5843 0.718099 21.6926 0.728187 19.8018C0.740797 17.6018 0.755089 15.4001 0.865217 13.2035C0.966098 11.2082 1.10397 9.21119 1.41334 7.23288C1.74961 5.07365 2.88032 3.38924 4.5953 2.09472C5.72853 1.2402 7.01056 0.768768 8.41869 0.615872C11.082 0.327068 13.7477 0.120658 16.4286 0.0730902C19.2642 0.0229742 22.099 -0.019497 24.9338 0.00938341C26.8455 0.0289202 28.7597 0.0331673 30.668 0.141894C32.7125 0.259114 34.7629 0.375485 36.7873 0.728845C38.2038 0.976877 39.4514 1.62923 40.5216 2.61626C41.7649 3.76214 42.609 5.14585 42.9898 6.80477C43.1756 7.61597 43.2109 8.45011 43.2983 9.27575C43.6085 12.2105 43.6346 15.1563 43.6649 18.1021C43.6598 18.1585 43.6734 18.215 43.7035 18.2627Z" fill="white"/>
<path d="M22.7573 31.6473C19.7356 31.6547 16.7154 31.5078 13.7083 31.2073C10.9803 30.9354 9.56795 29.5144 9.16863 26.6476C8.64909 22.9424 8.69449 19.2474 9.38805 15.5668C9.69153 13.958 11.2695 12.57 13.2182 12.339C18.5211 11.7104 23.8376 11.6688 29.1574 12.1224C30.0317 12.1971 30.9228 12.2439 31.7694 12.4622C33.9938 13.0304 35.0774 14.5195 35.3363 16.8435C35.7525 20.5606 35.7735 24.2462 35.0841 27.9276C34.7857 29.5254 33.1792 30.8938 31.1943 31.1427C28.2074 31.5122 25.2062 31.6311 22.7573 31.6473Z" fill="#353942"/>
<path d="M19.0314 21.7451C19.0314 20.1371 19.0314 18.5291 19.0314 16.9212C19.0314 16.646 19.0314 16.5305 19.3433 16.725C21.9253 18.3411 24.5137 19.9477 27.1086 21.5446C27.4104 21.7306 27.3238 21.7858 27.0892 21.9311C24.5112 23.5246 21.9331 25.1227 19.355 26.7252C19.2612 26.7756 19.1637 26.8184 19.0633 26.8535C19.0532 26.7448 19.0339 26.6352 19.0339 26.5265C19.0311 24.9335 19.0302 23.3397 19.0314 21.7451Z" fill="white"/>
</svg>
