<svg width="170" height="58" fill="none" xmlns="http://www.w3.org/2000/svg">
    <g opacity=".8" clip-path="url(#clip0_301_3)" fill="#fff">
        <path d="M25.568 5.11a1.3 1.3 0 00-1.428.25L10.565 18.333H1.319a1.303 1.303 0 00-.933.39 1.334 1.334 0 00-.386.944v18.666a1.346 1.346 0 00.386.944 1.315 1.315 0 00.933.39h9.246L24.14 52.636a1.312 1.312 0 001.427.256c.237-.104.439-.274.58-.492.142-.218.218-.472.218-.733V6.333c0-.26-.076-.515-.217-.733a1.32 1.32 0 00-.58-.49zm-1.84 43.463L11.992 37.364A1.31 1.31 0 0011.09 37H2.636V21h8.453c.336 0 .66-.13.904-.364l11.74-11.209-.006 39.146zM45.98 5.25a1.307 1.307 0 00-1.81.32 1.345 1.345 0 00.262 1.839 26.519 26.519 0 018.04 9.46 26.849 26.849 0 012.892 12.127c0 4.217-.991 8.373-2.892 12.127a26.52 26.52 0 01-8.04 9.46 1.348 1.348 0 000 2.157 1.309 1.309 0 001.547.005 29.333 29.333 0 008.825-10.418A29.697 29.697 0 0058 28.995c0-9.348-4.49-18.225-12.02-23.745z"/>
        <path d="M38.804 13.205a1.312 1.312 0 00-1.495.008 1.328 1.328 0 00-.55.884 1.35 1.35 0 00.25 1.013c.106.143.24.263.394.353a15.893 15.893 0 015.438 5.8A16.112 16.112 0 0144.819 29c0 2.707-.68 5.37-1.978 7.738a15.893 15.893 0 01-5.438 5.8 1.347 1.347 0 00-.374 1.812 1.306 1.306 0 001.776.446 18.546 18.546 0 006.342-6.768 18.802 18.802 0 002.307-9.028c0-3.159-.794-6.266-2.307-9.029a18.546 18.546 0 00-6.343-6.767z"/>
        <path d="M33.707 22.599a1.314 1.314 0 00-.99-.278 1.31 1.31 0 00-.888.525 1.342 1.342 0 00.302 1.89 5.263 5.263 0 011.576 1.873 5.33 5.33 0 010 4.783 5.264 5.264 0 01-1.576 1.873 1.328 1.328 0 00-.546.88 1.348 1.348 0 00.244 1.01 1.325 1.325 0 00.887.526 1.305 1.305 0 00.99-.278 7.921 7.921 0 002.357-2.815 8.02 8.02 0 000-7.175 7.921 7.921 0 00-2.356-2.814z"/>
    </g>
    <path d="M79.633 23h-2.258v-5.64h-6.067V23h-2.27V9.792h2.27v5.725h6.066V9.792h2.259V23zm9.118.244c-1.79 0-3.247-.586-4.37-1.758-1.123-1.18-1.684-2.754-1.684-4.724v-.415c0-1.31.248-2.478.744-3.503.505-1.034 1.205-1.84 2.1-2.417a5.282 5.282 0 012.93-.88c1.717 0 3.051.566 4.004 1.698.952 1.13 1.428 2.75 1.428 4.858v.94h-8.948c.033 1.302.411 2.356 1.135 3.162.733.797 1.66 1.196 2.784 1.196.797 0 1.473-.163 2.026-.488a5.09 5.09 0 001.453-1.294l1.379 1.074c-1.107 1.7-2.767 2.551-4.98 2.551zm-.28-11.84c-.912 0-1.677.333-2.295 1-.619.66-1.001 1.587-1.148 2.784h6.616v-.171c-.065-1.148-.374-2.035-.927-2.662-.554-.634-1.302-.952-2.246-.952zm20.056-.855c1.66 0 2.987.557 3.979 1.672 1.001 1.107 1.502 2.568 1.502 4.383v.207c0 1.245-.24 2.36-.72 3.345a5.375 5.375 0 01-2.076 2.283c-.895.537-1.928.805-3.1.805-1.774 0-3.202-.59-4.285-1.77-1.082-1.188-1.623-2.779-1.623-4.773v-1.099c0-2.774.512-4.98 1.538-6.616 1.033-1.635 2.555-2.632 4.565-2.99 1.139-.204 1.908-.452 2.307-.745s.598-.696.598-1.209h1.856c0 1.018-.232 1.811-.696 2.38-.456.57-1.188.973-2.197 1.21l-1.685.378c-1.343.317-2.352.854-3.027 1.611-.667.749-1.103 1.75-1.306 3.003 1.196-1.383 2.653-2.075 4.37-2.075zm-.44 1.855c-1.106 0-1.985.375-2.636 1.123-.651.74-.977 1.77-.977 3.089v.195c0 1.416.326 2.54.977 3.37.659.821 1.546 1.232 2.661 1.232 1.123 0 2.01-.415 2.661-1.245.651-.83.977-2.043.977-3.638 0-1.245-.33-2.242-.989-2.99-.651-.757-1.542-1.136-2.674-1.136zm7.862 3.87c0-1.294.252-2.458.757-3.491.512-1.034 1.22-1.831 2.124-2.393.911-.561 1.949-.842 3.112-.842 1.799 0 3.252.622 4.358 1.867 1.115 1.246 1.673 2.902 1.673 4.969v.159c0 1.285-.249 2.44-.745 3.466-.488 1.017-1.192 1.811-2.112 2.38-.911.57-1.961.855-3.149.855-1.791 0-3.243-.622-4.358-1.867-1.107-1.246-1.66-2.894-1.66-4.944v-.16zm2.27.268c0 1.465.338 2.641 1.013 3.528.684.887 1.595 1.33 2.735 1.33 1.147 0 2.059-.447 2.734-1.342.676-.903 1.013-2.165 1.013-3.784 0-1.449-.346-2.62-1.037-3.516-.684-.903-1.595-1.355-2.735-1.355-1.115 0-2.014.444-2.697 1.33-.684.888-1.026 2.157-1.026 3.81zm23.218-6.75V23h-2.27V11.66h-4.493l-.268 4.944c-.147 2.27-.529 3.894-1.148 4.87-.61.977-1.583 1.485-2.917 1.526h-.903v-1.99l.646-.049c.733-.081 1.258-.504 1.575-1.27.318-.764.521-2.18.611-4.247l.244-5.652h8.923zm9.106 13.452c-1.79 0-3.247-.586-4.37-1.758-1.123-1.18-1.684-2.754-1.684-4.724v-.415c0-1.31.248-2.478.744-3.503.505-1.034 1.205-1.84 2.1-2.417a5.281 5.281 0 012.93-.88c1.717 0 3.051.566 4.004 1.698.952 1.13 1.428 2.75 1.428 4.858v.94h-8.948c.033 1.302.411 2.356 1.135 3.162.733.797 1.66 1.196 2.784 1.196.797 0 1.473-.163 2.026-.488a5.11 5.11 0 001.453-1.294l1.379 1.074c-1.107 1.7-2.767 2.551-4.981 2.551zm-.28-11.84c-.912 0-1.677.333-2.295 1-.619.66-1.001 1.587-1.148 2.784h6.617v-.171c-.066-1.148-.375-2.035-.928-2.662-.554-.634-1.302-.952-2.246-.952zm13.537 11.84c-1.79 0-3.247-.586-4.37-1.758-1.123-1.18-1.684-2.754-1.684-4.724v-.415c0-1.31.248-2.478.744-3.503.505-1.034 1.205-1.84 2.1-2.417a5.281 5.281 0 012.93-.88c1.717 0 3.051.566 4.003 1.698.953 1.13 1.429 2.75 1.429 4.858v.94h-8.948c.032 1.302.411 2.356 1.135 3.162.733.797 1.66 1.196 2.783 1.196.798 0 1.473-.163 2.027-.488a5.093 5.093 0 001.452-1.294l1.38 1.074c-1.107 1.7-2.767 2.551-4.981 2.551zm-.28-11.84c-.912 0-1.677.333-2.295 1-.619.66-1.001 1.587-1.148 2.784h6.616v-.171c-.065-1.148-.374-2.035-.927-2.662-.554-.634-1.302-.952-2.246-.952zM88.788 46.03h2.466v1.843h-2.466V52h-2.27v-4.126h-8.094v-1.33l7.96-12.317h2.404V46.03zm-7.8 0h5.53v-8.716l-.269.488-5.261 8.228zm23.45-1.612c0 2.645-.452 4.61-1.355 5.896-.904 1.286-2.316 1.93-4.236 1.93-1.896 0-3.3-.627-4.212-1.88-.911-1.262-1.383-3.142-1.416-5.64v-3.016c0-2.612.452-4.553 1.355-5.822.904-1.27 2.32-1.905 4.248-1.905 1.913 0 3.321.615 4.224 1.844.903 1.22 1.367 3.108 1.392 5.664v2.93zm-2.259-3.088c0-1.912-.268-3.304-.805-4.175-.538-.879-1.388-1.318-2.552-1.318-1.155 0-1.998.435-2.527 1.306-.529.87-.801 2.21-.817 4.016v3.613c0 1.921.276 3.341.83 4.26.561.912 1.407 1.368 2.539 1.368 1.115 0 1.941-.431 2.478-1.294.545-.863.83-2.222.854-4.077V41.33zm11.475 8.826l.781-.965c.879-1.139 1.379-2.848 1.502-5.127l.207-5.273h8.508v11.365h1.697v5.725h-2.258V52h-9.216v3.882h-2.259l.012-5.725h1.026zm2.673 0h6.067v-9.278h-4.065l-.134 3.15c-.139 2.628-.761 4.671-1.868 6.128zm23.718-14.002h-8.569v5.322h4.419c1.855.025 3.304.501 4.346 1.429 1.041.928 1.562 2.189 1.562 3.784 0 1.603-.525 2.88-1.574 3.833-1.05.952-2.483 1.444-4.297 1.477h-6.812V34.227h10.925v1.928zm-8.569 7.251v6.678h4.285c1.163 0 2.067-.31 2.71-.928.651-.619.976-1.449.976-2.49 0-1.001-.313-1.79-.94-2.369-.618-.577-1.501-.874-2.649-.89h-4.382zm23.316 3.955h-7.447L145.673 52h-2.417l6.787-17.773h2.051L158.893 52h-2.405l-1.696-4.639zm-6.739-1.928h6.043l-3.028-8.313-3.015 8.313z" fill="#fff"/>
    <defs>
        <clipPath id="clip0_301_3">
            <path fill="#fff" transform="translate(0 5)" d="M0 0h58v48H0z"/>
        </clipPath>
    </defs>
</svg>
