<svg width="166" height="87" fill="none" xmlns="http://www.w3.org/2000/svg">
    <path d="M44.515 43.089l.903-8.862h9.106v2.087h-7.19l-.537 4.846c.871-.512 1.86-.769 2.967-.769 1.62 0 2.905.537 3.857 1.611.952 1.066 1.428 2.511 1.428 4.334 0 1.831-.496 3.276-1.489 4.333-.985 1.05-2.364 1.575-4.138 1.575-1.57 0-2.852-.435-3.845-1.306-.993-.87-1.559-2.075-1.697-3.613h2.136c.139 1.017.5 1.786 1.087 2.307.585.513 1.359.769 2.319.769 1.05 0 1.872-.358 2.466-1.074.602-.716.903-1.705.903-2.967 0-1.188-.325-2.14-.976-2.856-.643-.724-1.502-1.087-2.576-1.087-.985 0-1.758.216-2.32.648l-.598.488-1.806-.464zm14.038 0l.903-8.862h9.106v2.087h-7.19l-.537 4.846c.871-.512 1.86-.769 2.967-.769 1.62 0 2.905.537 3.857 1.611.952 1.066 1.428 2.511 1.428 4.334 0 1.831-.496 3.276-1.489 4.333-.985 1.05-2.364 1.575-4.138 1.575-1.57 0-2.852-.435-3.845-1.306-.993-.87-1.559-2.075-1.697-3.613h2.136c.139 1.017.5 1.786 1.087 2.307.586.513 1.359.769 2.319.769 1.05 0 1.872-.358 2.466-1.074.602-.716.903-1.705.903-2.967 0-1.188-.325-2.14-.976-2.856-.643-.724-1.502-1.087-2.576-1.087-.985 0-1.758.216-2.32.648l-.598.488-1.806-.464zm19.323 7.068l.782-.965c.879-1.139 1.38-2.848 1.501-5.127l.208-5.273h8.508v11.365h1.697v5.725h-2.258V52h-9.217v3.882H76.84l.012-5.725h1.025zm2.674 0h6.067v-9.278h-4.065l-.135 3.15c-.138 2.628-.76 4.671-1.867 6.128zm23.718-14.002h-8.57v5.322h4.42c1.855.025 3.304.501 4.345 1.429 1.042.928 1.563 2.189 1.563 3.784 0 1.603-.525 2.88-1.575 3.833-1.05.952-2.482 1.444-4.297 1.477h-6.811V34.227h10.925v1.928zm-8.57 7.251v6.678h4.285c1.164 0 2.067-.31 2.71-.928.651-.619.977-1.449.977-2.49 0-1.001-.313-1.79-.94-2.369-.619-.577-1.501-.874-2.649-.89h-4.382zm23.316 3.955h-7.446L109.896 52h-2.417l6.787-17.773h2.05l6.8 17.773h-2.405l-1.697-4.639zm-6.738-1.928h6.042l-3.027-8.313-3.015 8.313z" fill="#fff"/>
    <g opacity=".8" clip-path="url(#clip0_301_4)">
        <path d="M143.572 26.119C121.528 4.526 106.166 0 83 0 59.834 0 36.985 9.063 21.43 26.165 6.19 42.91 2.137 59.368 0 81.285v5.713l62.156-.467.41.271a20.174 20.174 0 016.506-13.113 20.307 20.307 0 0113.683-5.297c1.073 0 4.181.796 5.227.962L77.756 80.009l.108 6.54h8.107l-.083-3.967 9.552-9.74c.358.283.706.576 1.044.886 3.727 3.418 5.993 7.75 6.434 12.76l.441.046 62.646.466v-5.714c-2.378-22.345-7.189-35.102-22.428-55.167h-.005zm15.746 55.167H108.59c-2.41-5.212-1.56-4.082-4.984-9.032-.502-.732-3.512-3.794-4.186-4.316l6.518-7.189-5.215-4.53-7.948 8.607c-3.064-1.013-6.72-1.982-10.02-1.982-7.661 0-15.458 2.37-20.61 8.014-3.866 4.235-4.258 4.57-6.3 10.428H6.188v-.467a76.123 76.123 0 0112.909-42.387 76.511 76.511 0 0134.36-28.099 76.808 76.808 0 0144.234-4.34 76.645 76.645 0 0139.2 20.88 75.786 75.786 0 0116.634 24.735 75.591 75.591 0 015.792 29.211v.467z" fill="#fff"/>
    </g>
    <defs>
        <clipPath id="clip0_301_4">
            <path fill="#fff" d="M0 0h166v87H0z"/>
        </clipPath>
    </defs>
</svg>
