<svg width="101" height="93" fill="none" xmlns="http://www.w3.org/2000/svg">
    <g opacity=".8" clip-path="url(#clip0_301_2)">
        <path d="M87.43 13.623A46.3 46.3 0 0072.268 3.485a46.156 46.156 0 00-35.722.226A46.308 46.308 0 0021.513 14.04a2.51 2.51 0 00-.557 2.768 2.509 2.509 0 001.387 1.36 2.492 2.492 0 002.744-.623 41.018 41.018 0 0113.525-9.286A40.887 40.887 0 0154.68 5.028c22.797-.021 41.333 18.587 41.333 41.462 0 22.874-18.536 41.503-41.333 41.503-22.797 0-41.333-18.608-41.333-41.493v-.522l4.115 4.131c.469.468 1.104.731 1.766.73a2.533 2.533 0 001.766-.73 2.506 2.506 0 00.733-1.773 2.514 2.514 0 00-.733-1.773l-8.354-8.407a2.494 2.494 0 00-2.722-.545 2.494 2.494 0 00-.81.545L.732 46.563a2.51 2.51 0 00-.595 2.764 2.51 2.51 0 001.374 1.38 2.49 2.49 0 002.754-.598l4.114-4.13v.521a46.622 46.622 0 007.804 25.835 46.354 46.354 0 0020.788 17.128 46.148 46.148 0 0026.764 2.644 46.26 46.26 0 0023.715-12.73A46.602 46.602 0 00101 46.497a46.603 46.603 0 00-13.57-32.873z" fill="#fff"/>
    </g>
    <path d="M55.899 55h-2.27V39.949l-4.554 1.672v-2.05l6.47-2.43h.354V55z" fill="#fff"/>
    <defs>
        <clipPath id="clip0_301_2">
            <path fill="#fff" d="M0 0h101v93H0z"/>
        </clipPath>
    </defs>
</svg>
