<svg width="44" height="44" fill="none" xmlns="http://www.w3.org/2000/svg">
    <path d="M43.703 18.263v6.948c-.075.116-.04.247-.04.371.004 1.93-.043 3.86-.142 5.79-.084 1.699-.205 3.403-.496 5.081-.233 1.344-.83 2.54-1.708 3.579-1.15 1.359-2.581 2.274-4.314 2.673-.761.176-1.543.225-2.318.308a61.61 61.61 0 01-5.339.323c-1.297.025-2.595.078-3.893.053-.15 0-.307-.043-.451.04h-6.037c-.116-.076-.245-.041-.367-.04-1.97.008-3.938-.044-5.902-.145-1.681-.085-3.371-.204-5.033-.501a7.306 7.306 0 01-3.573-1.76c-1.323-1.166-2.223-2.6-2.611-4.339-.177-.785-.217-1.59-.3-2.387-.13-1.275-.209-2.555-.316-3.831-.045-.534-.035-1.072-.043-1.607-.014-1.114-.041-2.232-.064-3.343a220.144 220.144 0 01-.028-5.674c.013-2.2.027-4.402.137-6.598.101-1.996.239-3.993.548-5.971.337-2.16 1.467-3.844 3.182-5.138C5.73 1.24 7.011.769 8.42.615c2.663-.288 5.329-.494 8.01-.542 2.835-.05 5.67-.092 8.505-.064 1.912.02 3.826.024 5.734.133 2.044.117 4.095.233 6.12.587 1.416.248 2.663.9 3.734 1.887 1.243 1.146 2.087 2.53 2.468 4.189.186.811.22 1.645.308 2.47.31 2.935.337 5.881.367 8.827a.258.258 0 00.038.16z" fill="#fff"/>
    <path d="M22.757 31.647a88.816 88.816 0 01-9.049-.44c-2.728-.272-4.14-1.693-4.54-4.56-.519-3.705-.474-7.4.22-11.08.304-1.609 1.882-2.997 3.83-3.228 5.303-.629 10.62-.67 15.94-.217.874.075 1.765.122 2.611.34 2.225.568 3.308 2.058 3.567 4.381.416 3.718.438 7.403-.252 11.085-.298 1.597-1.905 2.966-3.89 3.215-2.987.37-5.988.488-8.437.504z" fill="#353942"/>
    <path d="M19.031 21.745v-4.824c0-.275 0-.39.312-.196 2.582 1.616 5.17 3.223 7.766 4.82.301.186.215.24-.02.386a3633.103 3633.103 0 00-7.734 4.794c-.094.05-.191.093-.292.128-.01-.108-.03-.218-.03-.327-.002-1.593-.003-3.186-.002-4.78z" fill="#fff"/>
</svg>
