<svg width="43" height="44" fill="none" xmlns="http://www.w3.org/2000/svg">
    <path d="M0 27.25l.048-12.06c.127-1.712.257-3.427.357-5.141C.787 3.575 2.987 1.177 9.352.495 11.539.262 13.737.144 15.934 0l11.415.04c1.808.13 3.614.263 5.422.384 6.472.424 8.756 2.57 9.456 9.076.242 2.25.353 4.517.495 6.782l-.06 11.528c-.128 1.773-.26 3.544-.363 5.318-.381 6.47-2.601 8.882-8.947 9.55-2.148.228-4.307.348-6.46.492l-11.836-.056c-1.705-.131-3.41-.263-5.117-.358-6.348-.357-8.83-2.676-9.456-9.002C.27 31.592.143 29.42 0 27.25zm16.796-12.318c.708.208 1.457.424 1.493 1.28a46.56 46.56 0 01-.016 4.007.988.988 0 01-.095.358.722.722 0 01-.447.39.708.708 0 01-.584-.083 1.618 1.618 0 01-.405-.34c-1.24-1.54-2.182-3.268-2.903-5.114-.234-.593-.64-.954-1.288-.967a348.833 348.833 0 00-3.767-.047c-.84-.007-1.034.474-.704 1.134 1.17 2.336 2.28 4.712 3.607 6.956 1.827 3.093 4.04 5.934 7.84 6.514 1.537.232 3.943 1.638 4.316-1.687.065-.568.026-1.348.717-1.55.718-.21 1.2.433 1.51.933 1.846 2.949 4.698 2.86 7.584 2.6 1.139-.104 1.468-.896.791-1.794-.95-1.261-1.967-2.5-3.12-3.57-1.062-.985-1.049-1.756-.213-2.864 1.253-1.665 2.656-3.243 3.465-5.214.4-.972.053-1.417-.96-1.413-1.298.005-2.601.045-3.894-.019-.896-.044-1.369.292-1.678 1.144-.696 1.905-1.706 3.645-3.085 5.134l-.031.03c-.393.385-1.07.216-1.19-.323a.572.572 0 01-.015-.114c-.043-1.69-.013-3.38-.024-5.072-.005-.8-.426-1.307-1.217-1.333a70.274 70.274 0 00-4.472-.008c-.577.013-1.097.284-1.215 1.032z" fill="#fff"/>
</svg>
